<svg xmlns="http://www.w3.org/2000/svg" version="1.1" xmlns:xlink="http://www.w3.org/1999/xlink" xmlns:svgjs="http://svgjs.dev/svgjs" width="1000" height="1000" viewBox="0 0 1000 1000"><rect width="1000" height="1000" fill="#ffffff"></rect><g transform="matrix(0.7,0,0,0.7,149.32314049586785,295.7235723404257)"><svg viewBox="0 0 242 141" data-background-color="#ffffff" preserveAspectRatio="xMidYMid meet" height="582" width="1000" xmlns="http://www.w3.org/2000/svg" xmlns:xlink="http://www.w3.org/1999/xlink"><defs></defs><g id="tight-bounds" transform="matrix(1,0,0,1,0.23399999999998045,0.19949999999997203)"><svg viewBox="0 0 241.53169056000002 140.60052000000002" height="140.60052000000002" width="241.53169056000002"><g><svg viewBox="0 0 241.53169056000002 140.60052000000002" height="140.60052000000002" width="241.53169056000002"><g><svg viewBox="0 0 241.53169056000002 140.60052000000002" height="140.60052000000002" width="241.53169056000002"><g><path d="M0 140.601v-140.601h241.532v140.601z" fill="#2b2b2b" stroke="transparent" stroke-width="0" rx="0%" data-fill-palette-color="tertiary"></path><path d="M3.283 137.317v-134.034h234.965v134.034z" fill="#ffffff" stroke="transparent" stroke-width="0" rx="0%" data-fill-palette-color="quaternary"></path><path d="M9.85 130.751v-120.901h221.832v120.901z" fill="#2b2b2b" stroke="transparent" stroke-width="0" data-fill-palette-color="tertiary"></path></g><g transform="matrix(1,0,0,1,19.69974,19.69974)"><svg viewBox="0 0 202.13221056000003 101.20104000000002" height="101.20104000000002" width="202.13221056000003"><g><svg viewBox="0 0 202.13221056000003 101.20104000000002" height="101.20104000000002" width="202.13221056000003"><g transform="matrix(1,0,0,1,0,0)"><svg width="202.13221056000003" viewBox="1.25 -37.5 74.9000015258789 37.5" height="101.20104000000002" data-palette-color="#ffffff"><path d="M8 0L8-3.4 11.15-3.4 11.15-34.1 4.85-34.1 4.85-28.2 1.25-28.2 1.25-37.5 25.2-37.5 25.2-28.2 21.55-28.2 21.55-34.1 15.25-34.1 15.25-3.4 18.5-3.4 18.5 0 8 0ZM37.3 0L37.3-3.4 42.8-3.4 42.8-9.65 26.95-9.65 42.75-37.5 46.8-37.5 46.8-13.05 50.4-13.05 50.4-9.65 46.8-9.65 46.8-3.4 50.4-3.4 50.4 0 37.3 0ZM42.8-13.05L42.8-30.05 33.1-13.05 42.8-13.05ZM54.9 0L54.9-9.05Q54.9-13.15 57.6-14.85L57.6-14.85 72-23.8 72-34.1 58.85-34.1 58.85-28 54.95-28 54.95-37.5 69.5-37.5Q73.2-37.5 74.7-36.2L74.7-36.2Q76.1-35 76.1-31.7L76.1-31.7 76.1-25.85Q76.1-22.4 73.65-20.9L73.65-20.9 58.8-11.5 58.8-3.4 71.95-3.4 71.95-8 76.15-8 76.15 0 54.9 0Z" opacity="1" transform="matrix(1,0,0,1,0,0)" fill="#ffffff" class="undefined-text-0" data-fill-palette-color="quaternary" id="text-0"></path></svg></g></svg></g></svg></g></svg></g><g></g></svg></g></svg><rect width="241.53169056000002" height="140.60052000000002" fill="none" stroke="none" visibility="hidden"></rect></g></svg></g></svg>